<svg width="800" height="154" xmlns="http://www.w3.org/2000/svg">

 <g>
  <title>ScamAdviser.com Logo</title>
  <g stroke="null">
   <defs stroke="null" transform="translate(1 0) translate(1 0) translate(-1 0) translate(-1 0) translate(-1 0) translate(0 -1) translate(-3 -69) translate(-1187 -204) translate(-979 -164) translate(283 0) translate(806 10) translate(-1335.08 0) translate(0 -243.613) translate(2975 604.531) scale(0.761104 0.761104) translate(-2975 -604.531) translate(2622.51 578.805) scale(0.572503 0.572503) translate(-2622.51 -578.805) translate(1856.64 542.832) scale(0.623167 0.623167) translate(-1856.64 -542.832) translate(7.36141 282.026) scale(0.978934 0.978934) translate(-7.36141 -282.026) translate(2979.52 288.095) scale(0.98481 0.98481) translate(-2979.52 -288.095) translate(42.016 28.9555) scale(0.919023 0.919023) translate(-42.016 -28.9555) translate(41.5616 27.3501) scale(0.986014 0.986014) translate(-41.5616 -27.3501)" id="svg_33">
    <clipPath stroke="null" id="svg_5" clipPathUnits="userSpaceOnUse">
     <path stroke="null" id="svg_34" d="m-3204.09671,1704.17254l13602.625,0l0,-815.419l-13602.625,0l0,815.419z"/>
    </clipPath>
   </defs>
   <g stroke="null" transform="matrix(0.316286 0 0 -0.316286 964.324 486.5)" id="svg_2">
    <g stroke="null" id="svg_3">
     <g stroke="null" clip-path="url(#svg_5)" id="svg_4">
      <g stroke="null" transform="translate(186.811 582.169)" id="svg_31">
       <path stroke="null" fill-rule="nonzero" fill="#000000" id="svg_32" d="m-3204.09671,888.75354l0,-235.802l158.143,-159.555l158.143,159.555l0,235.802c0,0 -146.847,104.487 -316.286,0"/>
      </g>
      <g stroke="null" transform="translate(186.811 346.366)" id="svg_29">
       <path stroke="null" fill-rule="nonzero" fill="#cc1517" id="svg_30" d="m-3204.09671,888.75354l76.247,76.247l79.072,-76.247l160.967,155.319l0,-155.319l-158.143,-159.555l-158.143,159.555z"/>
      </g>
      <g stroke="null" transform="translate(419.126 420.66)" id="svg_27">
       <path stroke="null" fill-rule="nonzero" fill="#ffffff" id="svg_28" d="m-3204.09671,888.75354l-76.995,-74.294l-79.072,76.248l77.057,77.056l79.01,-79.01z"/>
      </g>
      <g stroke="null" transform="translate(675.25 445.63)" id="svg_25">
       <path stroke="null" fill-rule="nonzero" fill="#cc1517" id="svg_26" d="m-3204.09671,888.75354c-5.009,4.066 -10.014,7.077 -15.02,9.036c-5.009,1.954 -9.857,2.933 -14.551,2.933c-5.948,0 -10.795,-1.408 -14.55,-4.224c-3.755,-2.817 -5.633,-6.495 -5.633,-11.031c0,-3.131 0.939,-5.713 2.816,-7.745c1.878,-2.035 4.342,-3.795 7.393,-5.28c3.051,-1.489 6.491,-2.78 10.327,-3.872c3.832,-1.097 7.627,-2.27 11.382,-3.521c15.02,-5.009 26.01,-11.698 32.973,-20.065c6.961,-8.372 10.444,-19.285 10.444,-32.74c0,-9.075 -1.525,-17.289 -4.576,-24.642c-3.051,-7.356 -7.51,-13.652 -13.377,-18.892c-5.868,-5.244 -13.066,-9.311 -21.592,-12.204c-8.529,-2.893 -18.188,-4.342 -28.984,-4.342c-22.376,0 -43.106,6.648 -62.192,19.949l19.713,37.08c6.884,-6.101 13.69,-10.641 20.419,-13.611c6.725,-2.974 13.377,-4.46 19.948,-4.46c7.51,0 13.102,1.721 16.78,5.164c3.674,3.439 5.515,7.352 5.515,11.734c0,2.659 -0.469,4.965 -1.408,6.924c-0.939,1.954 -2.504,3.754 -4.694,5.397c-2.193,1.643 -5.045,3.169 -8.566,4.577c-3.52,1.408 -7.784,2.97 -12.79,4.694c-5.948,1.877 -11.775,3.948 -17.484,6.218c-5.714,2.267 -10.796,5.281 -15.255,9.036c-4.459,3.755 -8.06,8.485 -10.796,14.199c-2.739,5.71 -4.107,12.944 -4.107,21.708c0,8.761 1.445,16.7 4.342,23.821c2.893,7.118 6.96,13.22 12.204,18.306c5.24,5.083 11.653,9.035 19.244,11.851c7.587,2.817 16.077,4.225 25.464,4.225c8.76,0 17.913,-1.214 27.458,-3.637c9.542,-2.428 18.695,-5.985 27.459,-10.679l-18.306,-35.907z"/>
      </g>
      <g stroke="null" transform="translate(861.669 431.783)" id="svg_23">
       <path stroke="null" fill-rule="nonzero" fill="#cc1517" id="svg_24" d="m-3204.09671,888.75354c-10.642,12.985 -23.785,19.479 -39.428,19.479c-6.887,0 -13.26,-1.254 -19.127,-3.755c-5.867,-2.504 -10.913,-5.907 -15.138,-10.209c-4.224,-4.305 -7.55,-9.428 -9.974,-15.372c-2.427,-5.948 -3.637,-12.361 -3.637,-19.244c0,-7.041 1.21,-13.535 3.637,-19.479c2.424,-5.948 5.787,-11.112 10.092,-15.49c4.301,-4.382 9.348,-7.825 15.138,-10.326c5.786,-2.504 12.045,-3.755 18.774,-3.755c14.705,0 27.928,6.256 39.663,18.775l0,-54.448l-4.694,-1.643c-7.041,-2.5 -13.612,-4.341 -19.714,-5.514c-6.101,-1.174 -12.127,-1.761 -18.071,-1.761c-12.203,0 -23.901,2.31 -35.086,6.924c-11.188,4.613 -21.045,11.107 -29.57,19.478c-8.53,8.369 -15.373,18.306 -20.536,29.806c-5.163,11.5 -7.744,24.056 -7.744,37.667c0,13.613 2.541,26.088 7.627,37.433c5.082,11.343 11.889,21.122 20.418,29.336c8.526,8.214 18.423,14.628 29.688,19.245c11.265,4.613 23.076,6.923 35.438,6.923c7.041,0 13.964,-0.744 20.77,-2.229c6.806,-1.489 13.964,-3.796 21.474,-6.924l0,-54.917z"/>
      </g>
      <g stroke="null" transform="translate(995.748 379.682)" id="svg_21">
       <path stroke="null" fill-rule="nonzero" fill="#cc1517" id="svg_22" d="m-3204.09671,888.75354l-20.653,58.907l-20.652,-58.907l41.305,0zm12.204,-34.968l-65.713,0l-10.561,-30.744l-49.05,0l67.356,176.954l50.223,0l67.356,-176.954l-49.05,0l-10.561,30.744z"/>
      </g>
      <g stroke="null" transform="translate(1087.1 313.969)" id="svg_19">
       <path stroke="null" fill-rule="nonzero" fill="#cc1517" id="svg_20" d="m-3204.09671,888.75354l30.04,176.955l45.53,0l35.438,-94.345l35.203,94.345l45.529,0l30.041,-176.955l-45.765,0l-15.254,101.855l-41.775,-101.855l-18.305,0l-39.663,101.855l-15.254,-101.855l-45.765,0z"/>
      </g>
      <g stroke="null" transform="translate(1439.32 379.682)" id="svg_17">
       <path stroke="null" fill-rule="nonzero" fill="#000000" id="svg_18" d="m-3204.09671,888.75354l-20.653,58.907l-20.652,-58.907l41.305,0zm12.204,-34.968l-65.713,0l-10.561,-30.744l-49.05,0l67.356,176.954l50.223,0l67.356,-176.954l-49.05,0l-10.561,30.744z"/>
      </g>
      <g stroke="null" transform="translate(1577.85 352.928)" id="svg_15">
       <path stroke="null" fill-rule="nonzero" fill="#000000" id="svg_16" d="m-3204.09671,888.75354l10.562,0c7.979,0 15.096,1.25 21.356,3.755c6.256,2.501 11.537,5.944 15.842,10.326c4.301,4.378 7.586,9.582 9.856,15.607c2.266,6.021 3.404,12.632 3.404,19.831c0,7.041 -1.175,13.612 -3.521,19.714c-2.347,6.101 -5.673,11.341 -9.974,15.723c-4.305,4.379 -9.586,7.823 -15.841,10.327c-6.261,2.501 -13.301,3.755 -21.122,3.755l-10.562,0l0,-99.038zm-45.998,137.996l68.059,0c12.046,0 23.351,-2.428 33.913,-7.275c10.56,-4.851 19.791,-11.306 27.693,-19.362c7.898,-8.06 14.118,-17.448 18.657,-28.162c4.536,-10.719 6.806,-21.943 6.806,-33.678c0,-11.581 -2.229,-22.728 -6.689,-33.443c-4.459,-10.719 -10.641,-20.146 -18.54,-28.28c-7.902,-8.137 -17.132,-14.631 -27.693,-19.48c-10.561,-4.851 -21.943,-7.275 -34.147,-7.275l-68.059,0l0,176.955z"/>
      </g>
      <g stroke="null" transform="translate(1735.58 490.924)" id="svg_13">
       <path stroke="null" fill-rule="nonzero" fill="#000000" id="svg_14" d="m-3204.09671,888.75354l42.713,-107.721l42.948,107.721l49.989,0l-74.631,-176.955l-36.611,0l-74.397,176.955l49.989,0z"/>
      </g>
      <path stroke="null" fill-rule="nonzero" fill="#000000" id="svg_12" d="m-1266.79971,1202.72254l-45.999,0l0,176.955l45.999,0l0,-176.955z"/>
      <g stroke="null" transform="translate(2072.16 445.63)" id="svg_10">
       <path stroke="null" fill-rule="nonzero" fill="#000000" id="svg_11" d="m-3204.09671,888.75354c-5.009,4.066 -10.014,7.077 -15.02,9.036c-5.009,1.954 -9.857,2.933 -14.551,2.933c-5.948,0 -10.795,-1.408 -14.55,-4.224c-3.755,-2.817 -5.633,-6.495 -5.633,-11.031c0,-3.131 0.939,-5.713 2.817,-7.745c1.877,-2.035 4.341,-3.795 7.392,-5.28c3.051,-1.489 6.491,-2.78 10.327,-3.872c3.832,-1.097 7.626,-2.27 11.382,-3.521c15.02,-5.009 26.01,-11.698 32.973,-20.065c6.961,-8.372 10.444,-19.285 10.444,-32.74c0,-9.075 -1.525,-17.289 -4.577,-24.642c-3.05,-7.356 -7.509,-13.652 -13.376,-18.892c-5.868,-5.244 -13.066,-9.311 -21.592,-12.204c-8.529,-2.893 -18.188,-4.342 -28.984,-4.342c-22.376,0 -43.106,6.648 -62.192,19.949l19.713,37.08c6.884,-6.101 13.69,-10.641 20.419,-13.611c6.725,-2.974 13.376,-4.46 19.948,-4.46c7.51,0 13.102,1.721 16.78,5.164c3.675,3.439 5.515,7.352 5.515,11.734c0,2.659 -0.469,4.965 -1.408,6.924c-0.939,1.954 -2.505,3.754 -4.694,5.397c-2.193,1.643 -5.045,3.169 -8.566,4.577c-3.52,1.408 -7.784,2.97 -12.791,4.694c-5.947,1.877 -11.774,3.948 -17.484,6.218c-5.713,2.267 -10.795,5.281 -15.254,9.036c-4.459,3.755 -8.06,8.485 -10.796,14.199c-2.739,5.71 -4.107,12.944 -4.107,21.708c0,8.761 1.445,16.7 4.342,23.821c2.893,7.118 6.96,13.22 12.204,18.306c5.24,5.083 11.654,9.035 19.245,11.851c7.586,2.817 16.076,4.225 25.463,4.225c8.76,0 17.913,-1.214 27.458,-3.637c9.542,-2.428 18.695,-5.985 27.459,-10.679l-18.306,-35.907z"/>
      </g>
      <g stroke="null" transform="translate(2231.04 451.966)" id="svg_8">
       <path stroke="null" fill-rule="nonzero" fill="#000000" id="svg_9" d="m-3204.09671,888.75354l-54.682,0l0,-29.571l51.631,0l0,-38.958l-51.631,0l0,-30.509l54.682,0l0,-38.959l-100.682,0l0,176.955l100.682,0l0,-38.958z"/>
      </g>
      <g stroke="null" transform="translate(2314.66 411.835)" id="svg_6">
       <path stroke="null" fill-rule="nonzero" fill="#000000" id="svg_7" d="m-3204.09671,888.75354l8.684,0c9.072,0 16.035,1.877 20.887,5.632c4.848,3.755 7.276,9.153 7.276,16.193c0,7.042 -2.428,12.439 -7.276,16.194c-4.852,3.755 -11.815,5.633 -20.887,5.633l-8.684,0l0,-43.652zm101.151,-97.865l-57.264,0l-43.887,68.06l0,-68.06l-45.999,0l0,176.954l71.58,0c9.857,0 18.46,-1.448 25.816,-4.341c7.353,-2.897 13.414,-6.846 18.188,-11.852c4.771,-5.009 8.369,-10.796 10.796,-17.367c2.424,-6.571 3.638,-13.611 3.638,-21.122c0,-13.458 -3.249,-24.371 -9.74,-32.739c-6.494,-8.371 -16.076,-14.044 -28.749,-17.014l55.621,-72.519z"/>
      </g>
     </g>
    </g>
   </g>
  </g>
 </g>
</svg>
